<?xml version="1.0" encoding="UTF-8" standalone="no"?>
<!DOCTYPE svg PUBLIC "-//W3C//DTD SVG 1.1//EN" "http://www.w3.org/Graphics/SVG/1.1/DTD/svg11.dtd">
<svg width="100%" height="100%" viewBox="0 0 365 364" version="1.1" xmlns="http://www.w3.org/2000/svg" xmlns:xlink="http://www.w3.org/1999/xlink" xml:space="preserve" xmlns:serif="http://www.serif.com/" style="fill-rule:evenodd;clip-rule:evenodd;stroke-linejoin:round;stroke-miterlimit:2;">
    <g transform="matrix(1,0,0,1,-1.8,-318.1)">
        <path d="M239.5,557.4L224.3,557.4C221.5,557.4 219.4,555.1 219.6,552.3L221.2,499.8L221.2,492.2C221.2,489.4 223.4,487.1 226.2,487.1L241.4,487.1C244.2,487.1 246.5,489.4 246.5,492.2L246.5,499.8L245,552.3C244.8,555.1 242.4,557.4 239.6,557.4M216.4,598C216.1,600.8 213.5,603 210.7,603L135.2,603C132.6,603 130.2,601 129.6,598.5L126.1,582.8C125.5,580.1 127.4,577.8 130.2,577.8L213.5,577.8C216.3,577.8 218.3,580.1 218,582.8L216.4,598M117.6,641.4C110,637.8 102.6,633.7 95.6,628.9C90.5,624.9 86.6,619.5 84.5,613.3L77.2,582.7C76.6,580 78.5,577.7 81.3,577.7L97,577.7C99.8,577.7 102.5,579.9 103.1,582.7C106.7,600.7 112.1,618.2 119.2,635L121.3,639.5C122.5,641.8 120,642.5 117.8,641.4M69.6,507.4L69.6,499.8C69.6,482 70.6,464.3 72.6,446.6C73,443.8 75.4,441.6 78.3,441.6L93.7,441.6C96.5,441.6 98.4,443.8 98.1,446.6C95.9,464.2 94.8,482 94.8,499.8L94.9,507.4C95,510.2 92.7,512.5 89.9,512.5L74.9,512.5C72.1,512.5 69.8,510.2 69.1,507.4M191.4,532.2C194.2,532.2 196.4,534.5 196.2,537.3L195.4,552.5C195.2,555.3 192.8,557.6 190,557.6L103.7,557.6C100.9,557.6 98.3,555.3 98,552.6L96.3,537.4C96.1,534.6 98.2,532.4 101,532.4L191.4,532.2ZM121.5,446.7C121.7,443.9 124.1,441.6 126.9,441.6L142,441.6C144.8,441.6 146.9,443.9 146.7,446.7L145.1,499.2L145.1,506.8C145.1,509.6 142.9,511.9 140.1,511.9L125.5,511.9C122.7,511.9 120.4,509.6 120.4,506.8L120.4,499.2L121.9,446.7M149.7,416.4L151.4,401.2C151.7,398.4 154.3,396.2 157.1,396.2L232.6,396.2C235.2,396.2 237.6,398.2 238.2,400.7L241.7,416.4C242.3,419.1 240.4,421.4 237.6,421.4L154.3,421.4C151.5,421.4 149.5,419.1 149.8,416.4M250.3,358.2C257.9,361.8 265.3,365.9 272.3,370.7C277.4,374.7 281.3,380.1 283.4,386.3L290.7,416.9C291.3,419.6 289.4,421.9 286.6,421.9L270.9,421.9C268.1,421.9 265.4,419.7 264.8,416.9C261.2,398.9 255.8,381.4 248.7,364.6L246.6,360.1C245.4,357.8 247.9,357.1 250.1,358.2M298.2,492.2L298.3,499.8C298.3,517.6 297.3,535.3 295.3,553C294.9,555.8 292.5,558 289.6,558L274.2,558C271.4,558 269.5,555.7 269.8,553C272,535.4 273.1,517.6 273.1,499.8L273.1,492.2C273,489.4 275.3,487.1 278.1,487.1L293.3,487.1C296.1,487.1 298.4,489.4 299.1,492.2M176.5,467.4C173.7,467.4 171.5,465.1 171.7,462.3L172.5,447.1C172.7,444.3 175.1,442 177.9,442L264.2,442C267,442 269.6,444.2 269.9,447L271.5,462.2C271.7,465 269.6,467.3 266.8,467.3L176.5,467.4ZM243.5,583.2C243.8,580.4 246.2,578.2 249,578.2L348.3,578.2C360,553.7 366,527 365.9,500C365.9,488.3 364.9,478 363,467.4L302.4,467.4C299.6,467.4 296.6,465.1 297,462.3L295.5,447.1C295.2,444.3 297.1,442.1 299.9,442.1L356.7,442.1C332.5,370.6 264.3,318.1 184,318.1L173.3,318.4C168.5,326.6 163,340.2 158.1,362.3L156.5,370.2C155.8,373 153.4,375 150.5,375.2L134.8,375.2C132,375.2 130.1,373 130.7,370.2L133.4,356.8C136.3,343.6 139.6,332.2 143.3,322.6C98.2,332.9 59.5,359.9 34.1,396.6L121.5,396.6C124.3,396.6 126.3,398.9 125.9,401.6L124.2,416.8C123.9,419.6 121.5,421.8 118.7,421.8L19.4,421.8C7.8,446.3 1.8,473 1.8,500C1.8,511.7 2.8,522 4.7,532.6L65.4,532.6C68.2,532.6 71.2,534.9 70.8,537.6L72.3,552.8C72.6,555.6 70.7,557.8 67.9,557.8L11.3,557.8C35.5,630 103.6,681.9 183.9,681.9L194.6,681.6C199.4,673.4 204.9,659.8 209.8,637.7L211.4,629.8C212.1,627 214.5,625 217.4,624.8L233,624.8C235.8,624.8 237.7,627 237.1,629.8L234.4,643.2C231.9,654.8 228.6,666.3 224.5,677.4C269.6,667.1 308.3,640.1 333.7,603.4L246.3,603.4C243.5,603.4 241.5,601.1 241.9,598.4L243.5,583.2" style="fill:rgb(10,16,39);fill-rule:nonzero;"/>
    </g>
</svg>
